:SAMPLES-PER-SECOND 30
:FULLY-SPECIFIED
:DEGREES
19
root  5.05046 40.7767 -5.49234 -130.36 -87.4616 125.714
RightUpLeg  3.41021 -10.0178 -9.33521
RightLeg  8.42964 0.0706971 2.18474
RightFoot  -5.96123 -0.101831 1.35329
RightToes  0.00048216 0.542163 -0.142577
Spine  4.68871 0.406801 -2.70894
Spine1  3.3506 0.299533 0.636939
HEad  13.2022 -2.82678 -2.86674
LeftShoulder1  0.856104 -2.05556 -7.79294
LeftArm  -21.9271 10.6504 -7.72938
LeftForeArm  -1.71594 -0.653969 -0.0845375
LeftHand  -0.25398 0.0180481 5.50724
RightShoulder  0.668666 0.936191 7.51874
RightArm  -21.0552 -3.62152 1.40611
RightForeArm  0.908879 1.61527 2.62181
RightHand  -0.738714 1.18803 -13.1583
LeftUpLeg  3.39661 3.81682 -0.921303
LeftLeg  3.95163 14.4367 -3.59758
LeftFoot  -4.08891 -0.0983111 1.94064
LeftToes  1.06244e-005 4.65856e-005 -8.18505e-006
20
root  4.90255 40.7677 -5.42937 -133.014 -87.409 128.243
RightUpLeg  3.7833 -10.0294 -9.4699
RightLeg  8.39618 0.275689 2.15046
RightFoot  -6.13017 -0.114123 1.58651
RightToes  0.00048216 0.542163 -0.142577
Spine  4.51658 0.364738 -2.44292
Spine1  3.57819 0.324701 0.334682
HEad  15.6285 -1.8731 -2.74557
LeftShoulder1  0.913058 -2.19952 -8.4733
LeftArm  -22.7209 11.021 -7.93026
LeftForeArm  -1.44628 -1.42306 0.16338
LeftHand  -0.25398 0.0180481 5.50724
RightShoulder  0.692642 0.961853 8.0223
RightArm  -21.6492 -3.82837 1.97579
RightForeArm  -0.416684 2.26534 2.61544
RightHand  -0.840488 1.58707 -14.1214
LeftUpLeg  3.70709 3.83336 -0.992589
LeftLeg  4.12875 14.5859 -3.5202
LeftFoot  -4.47419 -0.0892301 1.93653
LeftToes  1.06244e-005 4.65856e-005 -8.18505e-006
21
root  4.74104 40.756 -5.35606 -135.016 -87.2956 130.062
RightUpLeg  4.21877 -10.0508 -9.6847
RightLeg  8.4155 0.545782 2.08981
RightFoot  -6.34447 -0.115212 1.65114
RightToes  0.00048216 0.542163 -0.142577
Spine  4.32645 0.344743 -2.26295
Spine1  3.95814 0.359493 0.103878
HEad  17.9772 -1.07543 -2.49601
LeftShoulder1  0.996586 -2.37324 -9.53084
LeftArm  -24.0933 11.4935 -8.3363
LeftForeArm  -0.712665 -2.59384 0.581055
LeftHand  -0.25398 0.0180481 5.50724
RightShoulder  0.733409 1.05587 8.66473
RightArm  -22.0121 -4.37877 2.95333
RightForeArm  -2.48274 3.19409 2.75485
RightHand  -1.00106 2.17815 -15.5083
LeftUpLeg  4.12321 3.79645 -1.15475
LeftLeg  4.26398 14.7664 -3.43933
LeftFoot  -4.8602 -0.0760068 1.85967
LeftToes  1.06244e-005 4.65856e-005 -8.18505e-006
22
root  4.55952 40.7391 -5.27739 -135.293 -87.1338 130.167
RightUpLeg  4.60967 -10.1397 -10.0168
RightLeg  8.56421 0.851581 2.01327
RightFoot  -6.68852 -0.117805 1.78308
RightToes  0.00048216 0.542163 -0.142577
Spine  4.01818 0.358778 -2.23786
Spine1  4.55362 0.410223 -0.0150703
HEad  20.2174 -0.4955 -2.15696
LeftShoulder1  1.10354 -2.51659 -11.0536
LeftArm  -25.9953 11.9804 -9.01076
LeftForeArm  0.94729 -4.36343 1.07922
LeftHand  -0.25398 0.0180481 5.50724
RightShoulder  0.78767 1.17728 9.49555
RightArm  -22.0438 -5.34696 4.36787
RightForeArm  -4.32573 4.43983 3.01461
RightHand  -1.20615 3.00123 -16.8665
LeftUpLeg  4.56994 3.73362 -1.40496
LeftLeg  4.37012 14.9267 -3.39959
LeftFoot  -5.2403 -0.0627644 1.77112
LeftToes  1.06244e-005 4.65856e-005 -8.18505e-006
23
root  4.37196 40.7103 -5.19322 -135.752 -86.9948 130.454
RightUpLeg  4.89548 -10.3186 -10.3595
RightLeg  8.94068 1.23826 1.92193
RightFoot  -7.15065 -0.130709 2.2479
RightToes  0.00048216 0.542163 -0.142577
Spine  3.79038 0.412821 -2.13681
Spine1  5.21747 0.509212 -0.190638
HEad  22.2397 -0.128508 -1.83941
LeftShoulder1  1.26248 -2.72129 -13.1972
LeftArm  -27.7749 12.3389 -9.80837
LeftForeArm  3.08668 -6.51981 1.39146
LeftHand  -0.25398 0.0180481 5.50724
RightShoulder  0.859589 1.30427 10.6668
RightArm  -22.006 -6.7726 6.16058
RightForeArm  -5.08102 6.06713 3.27053
RightHand  -1.38408 3.72807 -17.8144
LeftUpLeg  4.96307 3.80105 -1.5702
LeftLeg  4.63507 15.002 -3.40979
LeftFoot  -5.74835 -0.0481857 1.69615
LeftToes  1.06244e-005 4.65856e-005 -8.18505e-006
24
root  4.19895 40.66 -5.10846 -139.37 -86.857 133.79
RightUpLeg  5.00318 -10.4792 -10.5007
RightLeg  9.81806 1.78626 1.68038
RightFoot  -7.72646 -0.138765 2.72897
RightToes  0.00048216 0.542163 -0.142577
Spine  3.9812 0.531018 -1.85096
Spine1  5.76597 0.669191 -0.441471
HEad  23.7967 0.0782555 -1.59926
LeftShoulder1  1.5245 -3.13291 -16.1332
LeftArm  -28.8177 12.5154 -10.5344
LeftForeArm  4.7744 -8.5681 1.36776
LeftHand  -0.25398 0.0180481 5.50724
RightShoulder  0.991429 1.59275 12.4045
RightArm  -21.8757 -8.53506 8.03969
RightForeArm  -5.03348 7.8548 3.51906
RightHand  -1.47695 4.04798 -18.3573
LeftUpLeg  5.36063 4.14674 -1.47464
LeftLeg  5.1888 14.9059 -3.47853
LeftFoot  -6.53859 -0.0207671 1.42812
LeftToes  1.06244e-005 4.65856e-005 -8.18505e-006
25
root  4.04415 40.5835 -5.0436 -146.177 -86.5698 140.175
RightUpLeg  4.72013 -10.2743 -10.3118
RightLeg  11.5408 2.18641 1.13279
RightFoot  -8.46715 -0.130437 2.90296
RightToes  0.00048216 0.542163 -0.142577
Spine  4.62414 0.740622 -1.69262
Spine1  6.21799 0.853411 -0.509873
HEad  24.7491 0.161181 -1.38227
LeftShoulder1  1.90156 -3.74794 -19.654
LeftArm  -29.2112 12.5723 -11.4047
LeftForeArm  5.57216 -10.0916 1.12233
LeftHand  -0.25398 0.0180481 5.50724
RightShoulder  1.23572 2.19755 14.8434
RightArm  -21.1865 -10.2688 9.69041
RightForeArm  -4.46052 9.24748 3.81786
RightHand  -1.46956 3.9656 -18.4188
LeftUpLeg  5.82394 4.73036 -1.15646
LeftLeg  5.98679 14.6506 -3.58621
LeftFoot  -7.58536 0.0175427 0.849374
LeftToes  1.06244e-005 4.65856e-005 -8.18505e-006
26
root  3.89599 40.4841 -5.01537 -153.381 -85.969 146.971
RightUpLeg  3.64706 -9.20068 -9.91846
RightLeg  14.4706 1.69346 0.43489
RightFoot  -9.20174 -0.124084 3.33558
RightToes  0.00048216 0.542163 -0.142577
Spine  5.39885 1.04351 -1.92948
Spine1  6.69094 1.04311 -0.321914
HEad  25.21 0.130975 -1.14619
LeftShoulder1  2.38102 -4.51657 -23.3448
LeftArm  -29.0032 12.4478 -12.6947
LeftForeArm  5.31839 -10.4896 0.836485
LeftHand  -0.25398 0.0180481 5.50724
RightShoulder  1.59969 3.05604 17.8079
RightArm  -19.6191 -11.687 11.2267
RightForeArm  -2.50515 9.96952 4.13265
RightHand  -1.36184 3.66163 -17.6497
LeftUpLeg  6.18672 5.38446 -0.83056
LeftLeg  7.00354 14.5013 -3.63283
LeftFoot  -8.73306 0.0469836 0.248178
LeftToes  1.06244e-005 4.65856e-005 -8.18505e-006
27
root  3.74266 40.3718 -5.01521 -159.043 -84.9902 152.407
RightUpLeg  1.44953 -7.58377 -9.65057
RightLeg  18.9482 0.34905 -0.0969052
RightFoot  -9.32166 -0.147213 4.68565
RightToes  0.00048216 0.542163 -0.142577
Spine  6.0467 1.37062 -2.3061
Spine1  7.19631 1.26637 -0.276102
HEad  25.3224 0.0538159 -0.922446
LeftShoulder1  3.00956 -5.53602 -27.1062
LeftArm  -27.5027 11.9239 -14.1274
LeftForeArm  3.66454 -8.9654 0.535206
LeftHand  -0.25398 0.0180481 5.50724
RightShoulder  2.04884 4.0134 20.904
RightArm  -17.4731 -12.8998 13.1936
RightForeArm  1.34151 10.3808 4.4121
RightHand  -1.19414 3.31208 -16.1335
LeftUpLeg  6.25095 5.99535 -0.665175
LeftLeg  8.24466 14.7754 -3.51777
LeftFoot  -9.86943 0.0611646 -0.13582
LeftToes  1.06244e-005 4.65856e-005 -8.18505e-006
28
root  3.5709 40.268 -5.0256 -163.144 -83.7373 156.452
RightUpLeg  -1.66985 -6.85397 -9.63904
RightLeg  24.5884 -0.625203 -0.530737
RightFoot  -8.18577 -0.231103 6.32163
RightToes  0.00048216 0.542163 -0.142577
Spine  6.5773 1.56232 -2.42427
Spine1  7.70979 1.47636 -0.687746
HEad  25.0528 0.101016 -0.727144
LeftShoulder1  3.84911 -6.88144 -30.9709
LeftArm  -24.7693 11.048 -15.3676
LeftForeArm  1.20431 -5.694 -0.0454281
LeftHand  -0.25398 0.0180481 5.50724
RightShoulder  2.55732 5.00379 23.8812
RightArm  -15.2425 -14.0881 16.0487
RightForeArm  5.50375 10.8677 4.67375
RightHand  -1.03846 2.91227 -14.7342
LeftUpLeg  6.18432 6.4892 -0.644723
LeftLeg  9.4123 15.4652 -3.30024
LeftFoot  -10.891 0.0673164 -0.538847
LeftToes  1.06244e-005 4.65856e-005 -8.18505e-006
29
root  3.36287 40.1831 -5.05473 -165.685 -82.4576 159.027
RightUpLeg  -5.12911 -7.008 -9.70874
RightLeg  30.1353 -1.27983 -1.03697
RightFoot  -6.17078 -0.355396 6.9712
RightToes  0.00048216 0.542163 -0.142577
Spine  7.05086 1.48245 -2.5202
Spine1  8.25994 1.46315 -1.23855
HEad  24.3371 0.456471 -0.563523
LeftShoulder1  4.82165 -8.34211 -34.6271
LeftArm  -21.8367 10.2687 -16.8231
LeftForeArm  -0.733611 -2.40076 -0.842627
LeftHand  -0.25398 0.0180481 5.50724
RightShoulder  3.09994 5.96342 26.6919
RightArm  -13.2581 -15.1039 19.8356
RightForeArm  8.38633 11.2889 4.95453
RightHand  -0.914251 2.29707 -13.9989
LeftUpLeg  6.25131 6.79038 -0.68792
LeftLeg  10.199 16.3024 -3.11692
LeftFoot  -11.7479 0.0664086 -1.15351
LeftToes  1.06244e-005 4.65856e-005 -8.18505e-006
30
root  3.105 40.1309 -5.11697 -167.614 -81.3948 161.114
RightUpLeg  -8.29991 -7.65944 -9.64694
RightLeg  33.7626 -1.85641 -1.57806
RightFoot  -4.51418 -0.421567 6.54553
RightToes  0.00048216 0.542163 -0.142577
Spine  7.4453 1.10929 -2.98143
Spine1  8.74228 1.02733 -1.27441
HEad  23.2917 1.15345 -0.558302
LeftShoulder1  5.75161 -9.59343 -37.7665
LeftArm  -20.2022 9.92777 -18.9922
LeftForeArm  -0.436652 -0.778333 -1.40586
LeftHand  -0.25398 0.0180481 5.50724
RightShoulder  3.60882 6.75152 29.2151
RightArm  -11.907 -15.8389 24.3418
RightForeArm  10.7659 11.3745 5.18084
RightHand  -0.794719 1.62148 -13.3073
LeftUpLeg  6.51397 6.9063 -0.622016
LeftLeg  10.437 17.1187 -3.06773
LeftFoot  -12.3755 0.0595684 -1.64867
LeftToes  1.06244e-005 4.65856e-005 -8.18505e-006
